<?xml version="1.0" encoding="UTF-8"?><svg width="186px" height="31px" viewBox="0 0 186 31" xmlns="http://www.w3.org/2000/svg" xmlns:xlink="http://www.w3.org/1999/xlink"><path d="M20.25 6.106V.1H.72v6.006h5.712v17.388H.72V29.5h19.53v-6.006h-5.712V6.106h5.712zm18.774 7.35v-5.46h-6.846V1.528h-7.182v3.108c0 2.226-1.218 3.36-3.444 3.36h-.084v5.46h3.528v8.904c0 4.578 3.528 7.686 8.82 7.686 1.932 0 3.276-.126 5.208-1.05v-5.964c-2.016.882-2.982.966-3.822.966-1.806 0-3.024-1.008-3.024-2.898v-7.644h6.846zm37.17-5.46l-3.612 13.692L68.76 7.996H63.3l-3.822 13.692-3.654-13.692h-7.308L55.068 29.5h7.266l3.696-12.516L69.684 29.5h7.308l6.552-21.504h-7.35zM95.43 7.45c6.846 0 11.424 4.746 11.424 11.256 0 6.552-4.578 11.34-11.424 11.34-6.888 0-11.466-4.788-11.466-11.34 0-6.51 4.578-11.256 11.466-11.256zm0 5.628c-2.898 0-4.62 2.352-4.62 5.628 0 3.318 1.722 5.712 4.62 5.712 2.856 0 4.578-2.394 4.578-5.712 0-3.276-1.722-5.628-4.578-5.628zm22.092.714V7.996h-7.182V29.5h7.182v-7.518c0-5.376 1.89-7.728 8.946-6.972V7.534c-4.788 0-7.686 1.806-8.946 6.258zM145.158 29.5h8.4l-7.812-11.886 7.14-9.618h-8.316l-4.284 6.552h-3.612V.1h-7.182v29.4h7.182v-8.442h3.612l4.872 8.442zm22.092-14.196h6.384c-.462-5.46-4.326-7.854-9.87-7.854-6.09 0-9.534 2.436-9.534 6.804 0 4.998 4.494 5.586 8.19 6.426 3.822.882 4.704 1.134 4.704 2.478 0 1.512-1.428 1.932-2.982 1.932-2.394 0-3.822-.966-4.074-3.486h-6.384c.336 5.88 4.536 8.442 10.542 8.442 6.132 0 9.66-2.688 9.66-7.14 0-4.998-4.41-5.628-8.736-6.594-3.234-.672-4.326-.882-4.326-2.31 0-1.134 1.176-1.848 2.856-1.848 2.268 0 3.276.882 3.57 3.15zm11.424 4.536h6.258L185.94.1h-8.316l1.05 19.74zm-.63 9.66h7.518v-6.51h-7.518v6.51z" fill="#FFFFFF" fill-rule="evenodd"/></svg>
